:SAMPLES-PER-SECOND 30
:FULLY-SPECIFIED
:DEGREES
640
root  75.3486 38.5911 1.26715 20.3145 87.2226 22.0613
RightUpLeg  -9.44792 12.5867 -6.7677
RightLeg  29.0833 18.382 10.5139
RightFoot  -14.3079 0.153593 9.56552
RightToes  4.6566e-010 0 -3.6325e-017
Spine  39.3521 -7.66854 -12.6008
Spine1  -36.5162 -8.79324 11.0547
HEad  -126.656 49.0701 -75.7316
LeftShoulder1  -6.49065 13.4658 -56.3428
LeftArm  -39.8357 29.4573 124.236
LeftForeArm  14.7361 -76.7391 -106.576
LeftHand  -1.77201 16.9138 -16.6532
RightShoulder  1.26339 1.50498 19.3877
RightArm  -68.5026 8.76011 179.161
RightForeArm  76.3276 47.4081 164.453
RightHand  -9.59623 30.8295 -30.5507
LeftUpLeg  -14.3228 7.56936 2.61437
LeftLeg  17.8112 -16.2073 -5.53393
LeftFoot  2.14922 0.322836 -2.84062
LeftToes  -4.59298e-010 2.08438e-011 -1.27151e-011
641
root  75.0055 38.4746 1.74511 13.0245 89.5291 15.579
RightUpLeg  -8.29744 14.5636 -5.86163
RightLeg  31.7373 13.4131 8.61205
RightFoot  -14.1599 0.0922957 7.65019
RightToes  4.6566e-010 0 -3.6325e-017
Spine  13.8565 -11.2005 -7.84891
Spine1  1.74529 -12.011 -4.97721
HEad  -118.815 24.7905 -35.9422
LeftShoulder1  -7.68966 18.2924 -44.4866
LeftArm  -46.6271 42.596 98.8612
LeftForeArm  78.9783 -70.3334 -143.489
LeftHand  -0.950962 18.6223 -8.50525
RightShoulder  0.56156 -1.56405 22.6966
RightArm  -49.2757 19.007 177.313
RightForeArm  67.5393 62.3487 154.331
RightHand  -8.55212 42.0462 -20.599
LeftUpLeg  -14.5941 7.06717 3.48802
LeftLeg  18.442 -17.9061 -6.24041
LeftFoot  2.17671 0.442231 -3.84043
LeftToes  -4.59298e-010 2.08438e-011 -1.27151e-011
642
root  74.6655 38.2644 2.26151 133.565 88.2269 136.294
RightUpLeg  -7.74925 14.3079 -6.41297
RightLeg  34.6244 14.2811 10.1645
RightFoot  -14.362 0.10417 7.5569
RightToes  4.6566e-010 0 -3.6325e-017
Spine  12.9635 -11.8711 -8.08735
Spine1  2.56958 -11.9915 -6.40795
HEad  -116.858 26.1436 -36.4098
LeftShoulder1  -7.5815 20.1327 -38.576
LeftArm  -32.0949 47.7794 117.149
LeftForeArm  120.958 -69.229 -147.83
LeftHand  -1.77192 33.0495 -5.79193
RightShoulder  1.17323 1.14864 18.8486
RightArm  -46.3308 28.2162 176.503
RightForeArm  50.9345 70.7546 140.084
RightHand  -6.50686 49.694 -13.4903
LeftUpLeg  -15.6228 5.69553 3.57984
LeftLeg  19.1684 -18.3375 -6.61154
LeftFoot  2.25887 0.519346 -4.47646
LeftToes  -4.59298e-010 2.08438e-011 -1.27151e-011
643
root  74.3794 38.0792 2.62227 146.227 87.2269 148.874
RightUpLeg  -6.53569 15.6625 -6.82956
RightLeg  35.3826 17.3767 12.6231
RightFoot  -15.2847 0.106827 6.35027
RightToes  4.6566e-010 0 -3.6325e-017
Spine  12.5853 -12.701 -6.69775
Spine1  -0.233672 -12.4933 -7.90116
HEad  -115.853 29.784 -37.7146
LeftShoulder1  -7.86735 20.2371 -40.0489
LeftArm  -32.8113 50.4116 119.725
LeftForeArm  92.35 -64.7544 -152.069
LeftHand  -0.128199 29.7117 0.0687172
RightShoulder  1.65074 3.82432 15.826
RightArm  -48.2708 35.6286 170.826
RightForeArm  26.5623 76.4313 117.764
RightHand  -5.26014 54.3887 -10.2438
LeftUpLeg  -16.6117 4.06648 3.59957
LeftLeg  19.6167 -17.7843 -6.52409
LeftFoot  2.05025 0.600021 -5.21429
LeftToes  -4.59298e-010 2.08438e-011 -1.27151e-011
644
root  73.8859 37.92 3.21894 155.519 84.9171 159.116
RightUpLeg  -3.94222 16.3726 -6.05126
RightLeg  34.1808 17.9548 12.5094
RightFoot  -17.4524 -0.0157279 1.89502
RightToes  4.6566e-010 0 -3.6325e-017
Spine  13.1054 -13.3001 -6.85023
Spine1  -2.2501 -13.2922 -7.20649
HEad  -111.4 33.5063 -35.3395
LeftShoulder1  -8.24307 22.092 -37.3478
LeftArm  -36.1585 37.6863 117.938
LeftForeArm  85.8115 -66.6979 -149.196
LeftHand  0.849854 35.1783 3.76809
RightShoulder  1.92519 5.63153 14.0704
RightArm  -40.4773 47.42 175.54
RightForeArm  -32.0087 73.9755 65.4636
RightHand  -2.64439 56.4402 -4.81192
LeftUpLeg  -16.4865 2.41807 3.79099
LeftLeg  18.8542 -18.6232 -6.53644
LeftFoot  3.22878 0.689649 -5.54625
LeftToes  -4.59298e-010 2.08438e-011 -1.27151e-011
645
root  73.3461 37.8152 3.85074 165.887 82.4791 169.692
RightUpLeg  -2.34832 15.3089 -4.41771
RightLeg  30.7555 16.4431 10.0965
RightFoot  -19.5796 -0.163197 -0.459206
RightToes  4.6566e-010 0 -3.6325e-017
Spine  7.20244 -13.7766 -0.598521
Spine1  4.83953 -11.1843 -14.5719
HEad  -100.879 33.7516 -21.0831
LeftShoulder1  -8.16052 21.1355 -39.2564
LeftArm  -42.7866 27.3095 109.488
LeftForeArm  103.001 -71.1398 -141.396
LeftHand  0.826019 44.257 3.63886
RightShoulder  1.81861 6.94538 10.7159
RightArm  -40.4834 66.7154 -131.026
RightForeArm  -47.3758 37.0143 8.57999
RightHand  14.2045 54.1988 22.8406
LeftUpLeg  -17.0742 0.647392 4.68771
LeftLeg  17.3815 -19.7547 -6.28621
LeftFoot  4.75306 0.890561 -6.48917
LeftToes  -4.59298e-010 2.08438e-011 -1.27151e-011
646
root  72.5982 37.7495 4.46124 170.649 80.3512 175.404
RightUpLeg  -1.40509 12.0893 -2.84674
RightLeg  28.9015 14.9138 8.54375
RightFoot  -19.7486 -0.350258 -2.96461
RightToes  4.6566e-010 0 -3.6325e-017
Spine  1.49576 -13.0222 9.43719
Spine1  12.2801 -7.04122 -23.6691
HEad  -99.3907 28.8023 -19.6895
LeftShoulder1  -8.00315 20.5833 -39.8505
LeftArm  -51.5527 11.6901 91.5674
LeftForeArm  130.204 -77.7638 -126.769
LeftHand  -1.20198 38.7662 -7.94369
RightShoulder  1.10581 7.69384 2.98468
RightArm  168.81 63.9563 -114.543
RightForeArm  122.881 -4.62444 -11.6275
RightHand  65.0276 61.1811 91.9587
LeftUpLeg  -16.8128 -0.414109 5.53758
LeftLeg  15.0193 -21.5695 -5.47579
LeftFoot  7.20311 1.22205 -7.75953
LeftToes  -4.59298e-010 2.08438e-011 -1.27151e-011
647
root  71.9142 37.7767 5.18457 175.846 77.6731 -179.379
RightUpLeg  -2.02886 10.7402 -0.954556
RightLeg  27.8869 12.713 6.97798
RightFoot  -19.0027 -0.356776 -3.41026
RightToes  4.6566e-010 0 -3.6325e-017
Spine  1.37265 -12.9327 5.03601
Spine1  10.935 -10.1168 -13.0868
HEad  -97.5012 30.3269 -24.0887
LeftShoulder1  -8.26314 22.0708 -37.5024
LeftArm  -50.0609 -5.6952 84.1958
LeftForeArm  -124.837 -80.3911 -120.919
LeftHand  -4.19394 12.2842 -46.9303
RightShoulder  0.477605 -1.59013 15.2516
RightArm  132.746 63.1548 -132.634
RightForeArm  152.19 3.13607 -19.0377
RightHand  71.789 60.6879 98.6797
LeftUpLeg  -16.7125 1.286 5.9068
LeftLeg  10.7482 -26.5154 -3.92594
LeftFoot  11.0383 1.63055 -8.54684
LeftToes  -4.59298e-010 2.08438e-011 -1.27151e-011
